<svg width="151" height="199" viewBox="0 0 151 199" version="1.1" xmlns="http://www.w3.org/2000/svg" xmlns:xlink="http://www.w3.org/1999/xlink">
<title>Group</title>
<desc>Created using Figma</desc>
<g id="Canvas" transform="translate(-33 90)">
<g id="Group">
<g id="noun_642910_cc">
<g id="Vector">
<use xlink:href="#path0_fill" transform="translate(33 -61)" fill="#FFFFFF"/>
</g>
</g>
<g id="noun_964034_cc">
<g id="Group">
<g id="Vector">
<use xlink:href="#path1_fill" transform="matrix(0.1 0 0 -0.1 97.2139 -82.4905)" fill="#FFFFFF"/>
</g>
<g id="Vector">
<use xlink:href="#path2_fill" transform="matrix(0.1 0 0 -0.1 74.6278 -41.8535)" fill="#FFFFFF"/>
</g>
<g id="Vector">
<use xlink:href="#path3_fill" transform="matrix(0.1 0 0 -0.1 67 -68.3017)" fill="#FFFFFF"/>
</g>
<g id="Vector">
<use xlink:href="#path4_fill" transform="matrix(0.1 0 0 -0.1 127.548 -68.3017)" fill="#FFFFFF"/>
</g>
</g>
</g>
</g>
</g>
<defs>
<path id="path0_fill" d="M 151 106.25C 151 100.43 147.925 95.1768 143.203 92.2225C 145.136 89.5176 146.281 86.212 146.281 82.6382C 146.281 73.5243 138.873 66.1103 129.766 66.1103L 77.3196 66.1103C 82.3177 50.5873 84.8809 34.4542 84.9375 18.1303C 84.9696 8.87088 78.2803 1.12637 69.3807 0.113921C 60.2112 -0.934421 51.7118 5.36318 50.0622 14.4469L 49.7073 16.3982C 46.2003 35.699 38.0275 54.1139 26.0739 69.6558C 20.8814 76.4048 13.0974 80.2771 4.71875 80.2771C 2.11211 80.2771 0 82.3908 0 84.9993L 0 146.389C 0.0245375 147.618 0.507738 148.854 1.38165 149.728C 14.445 162.799 31.8138 170 50.2887 170L 119.834 170C 128.945 170 136.572 162.813 136.838 153.978C 136.936 150.692 136.076 147.539 134.394 144.817C 140.013 142.176 143.924 136.476 143.924 129.863C 143.924 126.689 143.01 123.733 141.455 121.215C 147.083 118.576 151 112.868 151 106.25ZM 101.453 75.5548L 129.766 75.5548C 133.667 75.5548 136.844 78.732 136.844 82.6382C 136.844 86.5445 133.667 89.7216 129.766 89.7216L 101.453 89.7216C 97.5517 89.7216 94.375 86.5445 94.375 82.6382C 94.375 78.732 97.5517 75.5548 101.453 75.5548ZM 91.2719 160.555L 50.2887 160.555C 34.9735 160.555 20.5473 154.811 9.4375 144.368L 9.4375 89.4156C 18.9335 88.1803 27.5424 83.2294 33.5541 75.415C 46.4193 58.6869 55.2169 38.861 58.9938 18.0831L 59.3487 16.1318C 60.1112 11.9252 64.0391 9.01632 68.3162 9.4961C 72.3611 9.957 75.5151 13.7348 75.5019 18.0963C 75.4471 33.9442 72.8783 49.6013 67.8726 64.6332L 66.306 69.3366C 65.8266 70.7759 66.0682 72.3607 66.9553 73.5904C 67.8424 74.82 69.2637 75.5548 70.7812 75.5548L 86.5532 75.5548C 85.5283 77.7044 84.9375 80.1014 84.9375 82.6382C 84.9375 87.2604 86.8495 91.4405 89.9167 94.4439C 86.8495 97.4472 84.9375 101.627 84.9375 106.25C 84.9375 110.872 86.8495 115.052 89.9167 118.055C 86.8495 121.059 84.9375 125.239 84.9375 129.861C 84.9375 135.775 88.067 140.96 92.748 143.88C 90.8095 146.589 89.6562 149.895 89.6562 153.472C 89.6562 156.009 90.247 158.406 91.2719 160.555ZM 119.832 160.555L 106.172 160.555C 102.27 160.555 99.0938 157.378 99.0938 153.472C 99.0938 149.566 102.27 146.389 106.172 146.389L 120.328 146.389C 122.259 146.389 124.063 147.152 125.407 148.54C 126.753 149.927 127.461 151.757 127.402 153.695C 127.289 157.478 123.894 160.555 119.832 160.555ZM 127.406 136.944L 101.453 136.944C 97.5517 136.944 94.375 133.767 94.375 129.861C 94.375 125.955 97.5517 122.777 101.453 122.777L 127.406 122.777C 131.308 122.777 134.484 125.955 134.484 129.861C 134.484 133.767 131.308 136.944 127.406 136.944ZM 134.484 113.333L 101.453 113.333C 97.5517 113.333 94.375 110.156 94.375 106.25C 94.375 102.343 97.5517 99.1661 101.453 99.1661L 134.484 99.1661C 134.964 99.1661 135.443 99.2133 135.906 99.3078C 139.182 99.9746 141.562 102.893 141.562 106.25C 141.562 110.156 138.386 113.333 134.484 113.333Z"/>
<path id="path1_fill" d="M 32.1306 74.8073C 22.6621 73.3523 14.0906 68.5357 8.16035 61.3109C 5.41947 57.9493 1.83141 50.6743 0.784888 46.2089C -0.261629 41.9944 -0.261629 33.716 0.784888 29.0499C 3.07726 18.4133 10.7019 8.7802 20.6687 3.86329C 26.4495 1.00345 30.7851 0 37.3632 0C 53.3101 0.0501726 67.0643 9.88399 72.4464 25.0361C 79.6724 45.5065 67.9614 67.9337 47.031 73.7537C 42.6954 74.9578 36.1173 75.4595 32.1306 74.8073Z"/>
<path id="path2_fill" d="M 246.679 398.091C 246.231 397.037 228.689 349.675 207.659 292.829C 186.629 235.984 169.187 188.922 168.938 188.219L 168.489 187.015L 167.144 188.721C 155.831 203.371 138.689 221.082 123.439 233.876C 95.0338 257.708 61.4954 276.573 27.0101 288.213C 17.5416 291.374 9.16949 293.833 8.82065 293.481C 8.67115 293.381 8.0233 291.274 7.32562 288.865C 5.9801 284.149 3.83723 279.483 1.49503 276.172L 0 274.115L 9.66783 264.381C 30.947 243.108 45.7478 222.437 58.6548 195.996C 74.9506 162.631 83.3227 128.514 84.6184 90.2824C 84.9673 79.1441 80.831 47.5354 84.6184 43.4714C 97.6252 29.4733 140.915 94.9986 198.722 90.2824C 220.599 88.5264 233.024 106.464 263.722 106.464C 294.42 106.464 311.845 72.0698 333.722 73.8258C 391.53 78.542 420.716 -12.5336 433.722 1.46454C 437.211 5.22748 433.722 68.1061 433.722 73.8258C 433.722 81.3015 437.576 102.433 438.722 111.464C 444.254 156.118 467.245 201.415 494.804 237.94C 502.179 247.774 509.804 256.454 519.671 266.288L 528.242 274.817L 526.548 277.526C 524.405 280.988 522.162 286.407 521.066 290.822C 520.618 292.779 520.169 294.384 520.119 294.435C 520.069 294.535 516.033 293.331 511.099 291.826C 472.926 280.186 437.444 261.321 406.497 236.184C 393.042 225.247 376.447 208.84 365.284 195.394L 358.956 187.768L 357.71 191.129C 357.012 192.986 339.321 240.599 318.341 296.993C 297.41 353.387 280.218 399.596 280.118 399.697C 279.968 399.797 278.324 399.446 276.43 398.844C 270.948 397.288 260.334 397.037 254.254 398.342C 251.663 398.944 249.071 399.546 248.473 399.697C 247.576 399.998 247.277 399.697 246.679 398.091Z"/>
<path id="path3_fill" d="M 30.9284 74.7571C 16.5762 72.2987 4.26716 60.7088 0.778768 46.2591C -0.26775 41.7937 -0.26775 33.4149 0.828602 28.8492C 2.17412 23.1797 5.66252 16.6071 9.69909 12.2923C 17.1244 4.26467 26.5929 0 36.9085 0C 47.4734 0 56.294 3.71277 63.6695 11.2387C 68.3041 15.9549 70.8955 20.2195 72.6895 25.7887C 75.9785 36.2246 74.7327 47.6138 69.3008 56.9459C 66.8589 61.1102 60.829 67.2814 56.7924 69.6897C 48.9186 74.3557 39.4999 76.2121 30.9284 74.7571Z"/>
<path id="path4_fill" d="M 29.9856 74.5564C 22.66 73.0011 16.6301 69.6897 11.0486 64.2209C 0.982122 54.2365 -2.50627 39.6363 1.8293 25.7887C 3.62333 20.2195 6.21471 15.9549 10.8493 11.2387C 18.2247 3.71277 27.0454 0 37.6102 0C 47.9259 0 57.3944 4.26467 64.8197 12.2923C 68.8563 16.6071 72.3447 23.1797 73.6902 28.8492C 74.7865 33.4149 74.7865 41.7937 73.74 46.2591C 70.6005 59.2538 60.7333 69.6897 47.7266 73.7537C 43.2415 75.1585 34.67 75.5097 29.9856 74.5564Z"/>
</defs>
</svg>
